<svg width="52" height="52" viewBox="0 0 52 52" fill="none" xmlns="http://www.w3.org/2000/svg">
<circle cx="26" cy="26" r="26" fill="#FC638F"/>
<path d="M14.6892 9.39255L17.7584 7.63768C19.6 6.58473 20.4189 8.017 20.6529 8.42627L20.6529 8.4263C21.6327 9.90244 23.873 13.3458 24.9961 15.3101C26.1192 17.2745 24.763 18.7015 23.9446 19.1694L22.7169 19.8714C20.2615 21.2753 22.7476 26.0985 24.1222 28.0277C25.4967 29.9569 28.3254 32.9552 30.3502 31.7975C32.1918 30.7446 33.3174 31.0512 33.99 31.7527C34.8234 32.498 36.5783 35.5672 37.9821 38.0226L37.9822 38.0227C39.3861 40.4781 37.8955 42.1449 36.6678 42.8468L34.2124 44.2507C31.2746 45.5232 28.9725 43.0852 27.59 41.9282C15.4851 31.7975 13.1427 21.4086 12.849 16.1464C12.3568 11.8664 13.4615 10.0945 14.6892 9.39255Z" fill="#FCE039"/>
</svg>
