<svg width="450" height="300" viewBox="0 0 317 237" fill="none" xmlns="http://www.w3.org/2000/svg">
<g opacity="0.6" filter="url(#filter0_d_1_765)">
<path d="M141.486 20.6223H80.7657C80.7657 20.6223 86.9257 12.2723 93.9957 12.0523C98.8857 1.31229 111.396 -5.2877 119.736 5.5323C125.476 4.1923 131.746 10.5223 131.336 16.1923C139.106 14.0923 141.486 20.6223 141.486 20.6223Z" fill="#D7E0E6"/>
</g>
<g opacity="0.15" filter="url(#filter1_d_1_765)">
<path d="M4.00001 181.999H293.182C293.182 181.999 275.041 113.139 264.082 113.139C253.124 113.139 253.124 140.605 253.124 140.605C253.124 140.605 242.096 82.013 220.087 83.3022C202.429 84.3382 198.515 101.973 198.515 101.973C198.515 101.973 188.915 39.9053 161.242 38.6391C133.569 37.3729 141.719 96.8393 141.719 96.8393C141.719 96.8393 125.442 91.8204 119.802 110.284C103.525 111.228 91.6457 125.479 91.001 140.582C80.3648 107.476 73.6653 72.758 56.5828 74.9452C40.3061 77.0402 44.6803 130.659 44.6803 130.659C44.6803 130.659 23.2005 130.452 22.7631 155.477C7.75262 156.329 4.00001 181.999 4.00001 181.999Z" fill="url(#paint0_linear_1_765)"/>
</g>
<g filter="url(#filter2_d_1_765)">
<path d="M201.379 24.0183C195.779 24.0183 191.239 19.4784 191.239 13.8783C191.239 8.27811 195.779 3.73828 201.379 3.73828C206.979 3.73828 211.519 8.27811 211.519 13.8783C211.519 19.4784 206.979 24.0183 201.379 24.0183Z" fill="#FFA629"/>
</g>
<g opacity="0.6" filter="url(#filter3_d_1_765)">
<path d="M305.075 25.2043H268.265C268.265 25.2043 271.095 19.0443 277.345 19.1343C279.925 13.3843 292.575 11.7443 295.155 20.4543C301.215 18.9943 304.525 23.1643 305.075 25.2043Z" fill="#D7E0E6"/>
</g>
<g filter="url(#filter4_d_1_765)">
<path d="M171.881 207.746L172.251 212.956L165.321 217.106C165.321 217.106 158.861 219.686 158.861 221.256C158.861 222.816 166.681 222.276 169.061 222.076C171.441 221.876 179.121 221.326 179.601 220.106C180.081 218.886 178.041 213.716 178.041 213.716L179.331 208.546L171.881 207.746Z" fill="#426F87"/>
<path d="M201.391 168.027L204.891 169.177L205.751 174.807C205.751 174.807 205.721 179.707 206.741 180.127C207.761 180.547 209.491 175.297 209.981 173.687C210.481 172.077 212.171 166.917 211.501 166.287C210.831 165.647 206.911 165.607 206.911 165.607L203.881 163.387L201.391 168.027Z" fill="#426F87"/>
<path d="M170.211 108.186C170.211 108.186 164.091 116.346 163.551 130.476C163.011 144.616 165.181 155.086 170.211 158.616C175.241 162.146 203.791 169.766 203.791 169.766C203.791 169.766 206.511 167.046 205.291 163.516C205.291 163.516 193.871 154.376 187.481 151.066L183.271 108.846L170.211 108.186Z" fill="#574E48"/>
<path d="M177.091 116.967L184.211 118.357L187.471 151.067C190.631 152.707 195.011 155.767 198.641 158.447C189.591 158.537 190.391 165.977 190.391 165.977C182.231 163.547 172.881 160.507 170.211 158.627C166.401 155.957 164.231 149.297 163.641 140.097C171.191 136.137 177.091 116.967 177.091 116.967Z" fill="#332F2B"/>
<path d="M199.031 106.096C199.031 106.096 202.971 117.566 199.031 130.346C195.091 143.126 184.621 163.106 184.621 163.106C184.621 163.106 184.621 198.056 179.851 208.606C179.391 209.616 178.401 210.276 177.291 210.276H173.581C172.131 210.276 170.921 209.176 170.791 207.736C170.121 200.336 168.161 178.756 167.491 170.036C166.671 159.436 170.071 147.746 171.161 142.986C172.251 138.226 179.181 107.776 179.181 107.776L199.031 106.096Z" fill="#574E48"/>
<path d="M170.211 108.185L178.991 108.625C179.111 108.085 179.181 107.785 179.181 107.785L199.031 106.105C199.031 106.105 200.181 109.465 200.621 114.575C189.061 117.355 173.431 112.255 168.751 110.565C169.601 109.005 170.211 108.185 170.211 108.185Z" fill="#332F2B"/>
<path d="M196.961 117.426L195.211 118.966C195.211 118.966 192.111 119.366 190.821 119.996C190.081 120.356 189.531 121.126 189.201 121.706C188.951 122.146 189.011 122.686 189.341 123.066L191.491 125.606C191.911 126.106 192.621 126.256 193.201 125.956C193.671 125.706 194.171 125.316 194.421 124.716C194.421 124.716 197.301 124.736 197.661 122.476L199.751 120.716L196.961 117.426Z" fill="#E6867A"/>
<path d="M191.191 121.215L189.511 123.275" stroke="#8F534C" stroke-width="0.2417" stroke-miterlimit="10"/>
<path d="M192.171 122.436L190.401 124.416" stroke="#8F534C" stroke-width="0.2417" stroke-miterlimit="10"/>
<path d="M193.121 123.526L191.351 125.496" stroke="#8F534C" stroke-width="0.2417" stroke-miterlimit="10"/>
<path d="M142.931 78.5868C142.921 78.6368 141.611 77.1068 141.611 77.1068C141.611 77.1068 142.131 76.2568 141.951 74.7468C141.771 73.2268 140.251 73.0868 140.251 73.0868C140.251 73.0868 139.721 71.6168 138.571 71.5768C137.531 71.5368 135.001 73.3568 134.861 74.5168C134.721 75.6668 135.781 78.3168 137.641 78.9468L138.831 81.1968L142.931 78.5868Z" fill="#E6867A"/>
<path d="M140.251 73.0756C139.751 73.0256 137.671 74.3156 137.771 74.7756C137.871 75.2356 138.311 75.5856 139.051 75.1756C139.791 74.7656 140.541 74.3056 140.541 74.3056" stroke="#8F534C" stroke-width="0.2417" stroke-miterlimit="10"/>
<path d="M139.651 74.8459C139.651 74.8459 139.261 76.5659 139.881 77.7859" stroke="#8F534C" stroke-width="0.2417" stroke-miterlimit="10"/>
<path d="M138.592 75.355L137.462 76.045C137.012 76.315 136.442 76.225 136.102 75.825L135.312 74.875" stroke="#8F534C" stroke-width="0.2417" stroke-miterlimit="10"/>
<path d="M178.231 62.9855L168.961 64.6155C165.781 65.1755 163.071 67.2355 161.681 70.1555L153.351 87.7255C153.351 87.7255 151.991 86.8455 151.451 85.4155C150.911 83.9855 149.071 82.8755 147.781 82.5855C146.491 82.2955 146.151 79.4055 144.861 79.3155C143.571 79.2355 142.891 78.4155 142.891 78.4155L142.351 77.5355L137.661 81.1855L138.611 82.5855C138.611 82.5855 139.291 85.8255 140.311 87.2555C141.331 88.6855 141.531 93.0355 143.231 95.5455C144.931 98.0555 147.991 104.106 154.241 103.836C160.491 103.566 168.121 94.0055 168.121 94.0055L169.131 103.846C169.131 103.846 167.571 107.576 168.651 108.936C169.741 110.296 172.931 110.366 175.851 110.436C178.771 110.506 189.991 111.186 196.651 108.936C203.311 106.696 200.181 104.046 200.181 104.046L199.361 91.1355L206.431 100.516C206.431 100.516 203.371 103.576 203.171 105.816C203.171 105.816 200.111 107.606 199.771 110.586C197.731 111.596 197.731 115.736 197.731 115.736L196.371 117.916L199.771 121.656L201.201 120.836C201.201 120.836 203.781 121.856 206.431 120.086C209.081 118.316 215.611 113.086 218.661 109.546C221.721 106.016 223.151 100.776 220.431 95.3355C218.481 91.4355 208.851 77.0155 203.581 69.1955C201.391 65.9555 197.861 63.8755 193.971 63.5455L183.971 62.6855L178.231 62.9855Z" fill="#E86F38"/>
<path d="M201.211 120.825L199.781 121.645L196.381 117.905L197.741 115.725C197.741 115.725 197.741 111.575 199.781 110.575C200.121 107.595 203.181 105.805 203.181 105.805C203.381 103.565 206.441 100.505 206.441 100.505L199.371 91.1251C199.371 91.1251 191.051 78.9551 189.511 74.5851C188.011 70.3451 189.981 63.2651 195.141 63.7051C198.561 64.3151 201.621 66.2751 203.581 69.1851C208.851 77.0051 218.481 91.4251 220.431 95.3251C223.151 100.765 221.721 105.995 218.661 109.535C215.601 113.065 209.081 118.305 206.431 120.075C203.791 121.845 201.211 120.825 201.211 120.825Z" fill="#FFB51F"/>
<path d="M154.241 103.835C147.991 104.105 144.931 98.0549 143.231 95.5449C141.531 93.0349 141.331 88.6849 140.311 87.2549C139.291 85.8249 138.611 82.5849 138.611 82.5849L137.661 81.1849L142.351 77.5349L142.891 78.4149C142.891 78.4149 143.571 79.2349 144.861 79.3149C146.151 79.3949 146.491 82.2849 147.781 82.5849C149.071 82.8749 150.911 83.9849 151.451 85.4149C151.991 86.8449 153.351 87.7249 153.351 87.7249L161.681 70.1549C163.061 67.2349 165.781 65.1749 168.961 64.6149L169.381 64.5449C169.381 64.5449 167.061 71.7049 166.281 79.3249C166.281 79.3249 162.781 87.3449 168.121 94.0149C168.121 94.0049 160.491 103.565 154.241 103.835Z" fill="#FFB51F"/>
<path d="M199.371 91.1252C195.761 86.3352 191.051 77.7852 191.051 77.7852" stroke="#292522" stroke-width="0.3369" stroke-miterlimit="10"/>
<path d="M183.981 62.6855L185.991 62.8555C183.811 67.9455 176.011 68.2755 173.641 63.7955L178.241 62.9855L183.981 62.6855Z" fill="#FFB51F"/>
<path d="M153.361 87.7266C155.061 88.9466 156.691 90.8566 156.891 92.7566" stroke="#292522" stroke-width="0.3369" stroke-miterlimit="10"/>
<path d="M158.981 102.226C163.221 93.9555 161.151 86.0155 165.681 81.1855C163.621 88.4755 168.121 94.0055 168.121 94.0055C168.121 94.0055 163.791 99.4355 158.981 102.226Z" fill="#DB9C1B"/>
<path d="M169.971 50.0059C169.971 50.0059 168.681 47.7659 170.791 45.3459C172.901 42.9359 175.721 43.2359 177.521 43.6759C179.321 44.1159 180.241 43.8459 181.701 44.2559C183.161 44.6659 184.041 46.6659 185.031 47.5859C186.021 48.5059 190.811 47.4459 192.401 51.1159C193.991 54.7859 192.571 56.7559 190.501 57.3059C188.941 60.1559 184.821 60.0559 182.721 59.5859C180.611 62.0659 174.771 61.4659 172.691 59.8459C170.621 58.2259 171.231 55.7659 171.231 55.7659C171.231 55.7659 168.111 52.0459 169.971 50.0059Z" fill="#FAFAFA"/>
<path d="M175.551 46.9159C175.551 46.9159 176.371 50.9259 180.411 50.7559L181.121 52.6959C181.121 52.6959 181.191 50.9659 182.511 51.3659C183.831 51.7659 184.411 54.0159 182.511 54.8959L183.971 62.6759C183.971 62.6759 183.561 64.6159 179.081 64.6159C177.011 64.6159 176.361 63.4959 176.361 63.4959L175.951 60.3659C175.951 60.3659 173.981 60.4359 172.781 57.8659C172.081 56.3759 172.451 53.9759 172.451 53.9759L171.741 50.5459C171.741 50.5459 172.591 47.2559 175.551 46.9159Z" fill="#E6867A"/>
<path d="M175.961 60.3664C177.471 60.4664 178.821 60.1364 179.941 59.3164C179.941 59.3164 178.991 61.8964 176.301 62.9864L175.961 60.3664Z" fill="#D9695B"/>
<path d="M176.191 52.3165C176.251 52.6965 176.501 52.9765 176.751 52.9365C177.001 52.8965 177.161 52.5565 177.101 52.1765C177.041 51.7965 176.791 51.5165 176.541 51.5565C176.291 51.5865 176.131 51.9365 176.191 52.3165Z" fill="#292522"/>
<path d="M172.921 52.8165C172.981 53.1965 173.231 53.4765 173.481 53.4365C173.731 53.3965 173.891 53.0565 173.831 52.6765C173.771 52.2965 173.521 52.0165 173.271 52.0565C173.021 52.0965 172.861 52.4365 172.921 52.8165Z" fill="#292522"/>
<path d="M174.171 56.9452C174.171 56.9452 175.941 57.0852 177.861 56.0352" stroke="#8F534C" stroke-width="0.2417" stroke-miterlimit="10"/>
<path d="M177.781 50.6966C177.781 50.6966 176.481 50.2366 175.451 50.6966" stroke="white" stroke-width="0.4833" stroke-miterlimit="10"/>
<path d="M173.592 51.1553C173.592 51.1553 172.712 51.0753 172.192 51.7453" stroke="white" stroke-width="0.4833" stroke-miterlimit="10"/>
<path d="M175.961 60.3668C178.471 60.5368 180.541 59.5168 181.871 56.9668" stroke="#8F534C" stroke-width="0.2417" stroke-miterlimit="10"/>
<path d="M174.481 52.2459C174.481 52.2459 174.021 55.2759 174.481 55.4459C174.941 55.6159 175.501 55.2559 175.501 55.2559" stroke="#8F534C" stroke-width="0.2417" stroke-miterlimit="10"/>
<path d="M176.262 54.8652C176.262 54.8652 178.492 55.8652 179.302 57.8752" stroke="#8F534C" stroke-width="0.2417" stroke-miterlimit="10"/>
<path d="M174.171 56.0352C174.171 56.0352 173.841 57.4452 174.171 58.6752" stroke="#8F534C" stroke-width="0.2417" stroke-miterlimit="10"/>
<path d="M166.681 78.4159C166.681 78.4159 162.491 86.2159 168.121 94.0059" stroke="#292522" stroke-width="0.3369" stroke-miterlimit="10"/>
</g>
<g filter="url(#filter5_d_1_765)">
<path d="M257.811 219.067L256.861 221.917L251.741 224.277C251.741 224.277 245.991 224.137 245.801 227.537C245.801 227.537 248.881 228.937 252.421 228.937H265.121C266.241 228.937 267.091 227.957 266.971 226.847C266.841 225.627 266.451 224.007 265.431 222.317L265.571 219.057H257.811V219.067Z" fill="#315263"/>
<path d="M293.031 191.417L294.691 193.487L293.981 198.397C293.981 198.397 291.131 202.587 293.551 204.347C293.551 204.347 296.061 202.737 297.751 200.127L303.831 190.737C304.371 189.907 304.051 188.817 303.171 188.367C302.211 187.887 300.821 187.397 299.081 187.347L296.731 185.687L293.031 191.417Z" fill="#315263"/>
<path d="M255.681 108.838C255.681 108.838 247.071 137.278 245.171 147.888C243.271 158.488 245.491 165.558 250.431 169.368C255.371 173.178 291.531 193.298 291.531 193.298C291.531 193.298 297.241 190.308 297.511 184.058L275.221 163.668L272.021 108.858H255.681V108.838Z" fill="#E86F38"/>
<path d="M280.781 187.256C269.701 181.006 253.601 171.806 250.421 169.356C250.161 169.156 249.911 168.946 249.671 168.726L265.221 117.396L273.681 137.356L275.211 163.646L282.171 170.016L280.781 187.256Z" fill="#B5562C"/>
<path d="M292.291 108.838C292.291 108.838 290.491 124.998 286.681 141.128C282.871 157.258 277.751 171.038 277.751 171.038L268.911 219.798H255.681C255.681 219.798 256.401 174.458 257.671 164.318C258.941 154.188 265.221 108.838 265.221 108.838H292.291Z" fill="#E86F38"/>
<path d="M255.681 108.838H265.221H272.011H292.291C292.291 108.838 291.721 113.968 290.541 121.338C280.481 123.528 274.281 117.528 267.371 116.238C262.431 115.318 257.101 114.178 254.271 113.568C255.131 110.668 255.681 108.838 255.681 108.838Z" fill="#B5562C"/>
<path d="M225.671 77.9867C225.651 78.0567 224.011 75.9867 224.011 75.9867C224.011 75.9867 224.731 74.9067 224.561 72.9167C224.391 70.9267 222.411 70.6667 222.411 70.6667C222.411 70.6667 221.781 68.7267 220.291 68.6067C218.931 68.5067 215.541 70.7767 215.311 72.2767C215.081 73.7767 216.341 77.2867 218.741 78.1967L220.201 81.1867L225.671 77.9867Z" fill="#E6867A"/>
<path d="M222.411 70.6677C221.761 70.5777 218.971 72.1677 219.091 72.7777C219.201 73.3877 219.761 73.8677 220.751 73.3677C221.741 72.8677 222.741 72.3077 222.741 72.3077" stroke="#8F534C" stroke-width="0.2417" stroke-miterlimit="10"/>
<path d="M221.561 72.9473C221.561 72.9473 220.971 75.1873 221.721 76.8073" stroke="#8F534C" stroke-width="0.2417" stroke-miterlimit="10"/>
<path d="M220.141 73.5673L218.631 74.4173C218.041 74.7573 217.281 74.5973 216.871 74.0573L215.881 72.7773" stroke="#8F534C" stroke-width="0.2417" stroke-miterlimit="10"/>
<path d="M250.561 38.2273C250.561 38.2273 248.931 38.1073 248.781 36.6073C248.531 34.0173 260.101 28.4773 262.371 34.7473C265.701 34.4673 263.741 41.5473 263.741 41.5473L260.571 41.7273L250.561 38.2273Z" fill="#FAFAFA"/>
<path d="M255.861 54.9464L252.011 56.0864C247.301 57.4764 243.561 61.0864 242.011 65.7464L234.841 87.2664L225.601 76.7964L218.401 80.6064C218.401 80.6064 225.331 95.2864 229.141 101.536C232.951 107.786 238.931 106.836 243.011 103.436C247.091 100.036 249.941 96.9064 249.941 96.9064L252.051 107.106C252.051 107.106 250.471 110.636 254.011 111.866C257.551 113.086 280.931 110.916 280.931 110.916L284.331 116.486C284.331 116.486 302.411 106.016 308.661 100.856C314.911 95.6864 311.651 88.8964 306.081 78.9664C303.061 73.5964 298.051 66.6164 294.091 61.3464C290.411 56.4564 284.801 53.3964 278.691 52.9664L269.641 52.3164L255.861 54.9464Z" fill="#426F87"/>
<path d="M280.921 110.906L292.941 91.5064L284.221 75.0664C284.221 75.0664 280.241 84.0364 281.691 90.0164C283.141 95.9964 280.091 97.7164 279.061 101.886C277.751 107.236 277.751 111.176 277.751 111.176L280.921 110.906Z" fill="#315263"/>
<path d="M280.921 110.906L295.381 87.5664" stroke="#292522" stroke-width="0.3369" stroke-miterlimit="10"/>
<path d="M280.421 67.9082L292.941 91.5082" stroke="#292522" stroke-width="0.3369" stroke-miterlimit="10"/>
<path d="M303.451 96.4273C303.451 92.2973 306.411 88.7973 310.491 87.6073C312.761 93.0873 312.901 97.3373 308.661 100.847C307.971 101.417 307.121 102.057 306.181 102.737C304.491 101.087 303.451 98.8673 303.451 96.4273Z" fill="#3D3733"/>
<path d="M241.571 104.458C237.651 106.928 232.601 107.078 229.211 101.658C230.491 99.998 232.491 98.918 234.741 98.918C238.111 98.918 240.911 101.298 241.571 104.458Z" fill="#3D3733"/>
<path d="M249.931 96.907L244.081 70.127" stroke="#292522" stroke-width="0.3369" stroke-miterlimit="10"/>
<path d="M234.841 87.2578L240.111 93.6378" stroke="#292522" stroke-width="0.3369" stroke-miterlimit="10"/>
<path d="M227.201 77.9669L219.141 82.5869L217.891 80.0969L225.461 76.0469L227.201 77.9669Z" fill="#3D3733"/>
<path d="M250.561 38.2277L258.671 36.0977C258.671 36.0977 258.811 38.3177 261.211 38.5477L261.871 40.3877C262.101 39.8677 262.541 39.4677 263.101 39.3677C264.071 39.1777 265.031 39.9177 265.241 41.0177C265.451 42.1177 264.831 43.1577 263.861 43.3377C263.581 43.3877 263.301 43.3577 263.041 43.2677L266.701 52.0877L269.651 52.3177C269.651 52.3177 269.401 59.9277 261.181 59.9277C256.201 59.9277 255.881 54.9477 255.881 54.9477L257.831 54.5377L257.011 50.5977C252.301 51.1877 251.661 46.0177 252.161 43.7977L250.561 38.2277Z" fill="#E6867A"/>
<path d="M257.931 44.998C257.931 44.998 258.251 47.458 257.131 47.848C256.011 48.238 255.021 45.758 255.021 45.758L257.931 44.998Z" fill="#A84F43"/>
<path d="M260.571 49.3965L257.621 53.6365L256.991 50.5965C257.001 50.5965 258.641 50.7365 260.571 49.3965Z" fill="#D9695B"/>
<path d="M256.831 40.9973C256.921 41.4273 257.231 41.7373 257.531 41.6773C257.821 41.6173 257.991 41.2173 257.901 40.7773C257.811 40.3473 257.501 40.0373 257.201 40.0973C256.901 40.1573 256.731 40.5673 256.831 40.9973Z" fill="#292522"/>
<path d="M252.721 42.0873C252.811 42.5173 253.121 42.8273 253.421 42.7673C253.711 42.7073 253.881 42.3073 253.791 41.8673C253.701 41.4373 253.391 41.1273 253.091 41.1873C252.801 41.2473 252.631 41.6473 252.721 42.0873Z" fill="#292522"/>
<path d="M257.881 39.1065C257.881 39.1065 257.021 39.0165 255.981 39.3565" stroke="white" stroke-width="0.4833" stroke-miterlimit="10"/>
<path d="M253.391 40.1777C253.391 40.1777 252.541 40.4577 252.031 41.0377" stroke="white" stroke-width="0.4833" stroke-miterlimit="10"/>
<path d="M257.001 50.5983C260.131 50.3483 262.781 48.5783 262.781 44.7383" stroke="#8F534C" stroke-width="0.2417" stroke-miterlimit="10"/>
<path d="M257.001 37.5879L252.331 38.9479" stroke="#8F534C" stroke-width="0.2417" stroke-miterlimit="10"/>
<path d="M260.301 46.6067L258.881 44.3867" stroke="#8F534C" stroke-width="0.2417" stroke-miterlimit="10"/>
<path d="M256.701 43.6376C256.701 43.6376 253.821 44.0576 254.001 46.1776C254.001 46.1776 257.191 46.1476 259.541 44.6176C259.541 44.6176 258.511 43.1276 256.701 43.6376Z" fill="white"/>
<path d="M254.491 40.9373L254.891 44.1573C254.891 44.1573 256.481 43.8473 256.701 43.6473C256.931 43.4473 256.361 42.7373 256.361 42.7373" stroke="#8F534C" stroke-width="0.2417" stroke-miterlimit="10"/>
<path d="M281.261 110.367L278.781 112.137C278.781 112.137 274.701 112.237 272.931 112.887C271.911 113.257 271.101 114.177 270.591 114.897C270.211 115.427 270.211 116.147 270.581 116.687L273.041 120.277C273.521 120.977 274.431 121.277 275.221 120.957C275.861 120.697 276.561 120.257 276.981 119.507C276.981 119.507 280.721 119.917 281.501 117.027L284.461 115.017L281.261 110.367Z" fill="#E6867A"/>
<path d="M273.241 114.508L270.781 116.968" stroke="#8F534C" stroke-width="0.2417" stroke-miterlimit="10"/>
<path d="M274.351 116.238L271.781 118.568" stroke="#8F534C" stroke-width="0.2417" stroke-miterlimit="10"/>
<path d="M275.441 117.768L272.871 120.098" stroke="#8F534C" stroke-width="0.2417" stroke-miterlimit="10"/>
<path d="M281.611 108.838L279.701 111.018L283.811 117.398L286.361 116.008L281.611 108.838Z" fill="#3D3733"/>
</g>
<defs>
<filter id="filter0_d_1_765" x="76.7656" y="0" width="68.72" height="28.6223" filterUnits="userSpaceOnUse" color-interpolation-filters="sRGB">
<feFlood flood-opacity="0" result="BackgroundImageFix"/>
<feColorMatrix in="SourceAlpha" type="matrix" values="0 0 0 0 0 0 0 0 0 0 0 0 0 0 0 0 0 0 127 0" result="hardAlpha"/>
<feOffset dy="4"/>
<feGaussianBlur stdDeviation="2"/>
<feComposite in2="hardAlpha" operator="out"/>
<feColorMatrix type="matrix" values="0 0 0 0 0 0 0 0 0 0 0 0 0 0 0 0 0 0 0.25 0"/>
<feBlend mode="normal" in2="BackgroundImageFix" result="effect1_dropShadow_1_765"/>
<feBlend mode="normal" in="SourceGraphic" in2="effect1_dropShadow_1_765" result="shape"/>
</filter>
<filter id="filter1_d_1_765" x="0" y="38.6191" width="297.182" height="151.379" filterUnits="userSpaceOnUse" color-interpolation-filters="sRGB">
<feFlood flood-opacity="0" result="BackgroundImageFix"/>
<feColorMatrix in="SourceAlpha" type="matrix" values="0 0 0 0 0 0 0 0 0 0 0 0 0 0 0 0 0 0 127 0" result="hardAlpha"/>
<feOffset dy="4"/>
<feGaussianBlur stdDeviation="2"/>
<feComposite in2="hardAlpha" operator="out"/>
<feColorMatrix type="matrix" values="0 0 0 0 0 0 0 0 0 0 0 0 0 0 0 0 0 0 0.25 0"/>
<feBlend mode="normal" in2="BackgroundImageFix" result="effect1_dropShadow_1_765"/>
<feBlend mode="normal" in="SourceGraphic" in2="effect1_dropShadow_1_765" result="shape"/>
</filter>
<filter id="filter2_d_1_765" x="187.239" y="3.73828" width="28.28" height="28.28" filterUnits="userSpaceOnUse" color-interpolation-filters="sRGB">
<feFlood flood-opacity="0" result="BackgroundImageFix"/>
<feColorMatrix in="SourceAlpha" type="matrix" values="0 0 0 0 0 0 0 0 0 0 0 0 0 0 0 0 0 0 127 0" result="hardAlpha"/>
<feOffset dy="4"/>
<feGaussianBlur stdDeviation="2"/>
<feComposite in2="hardAlpha" operator="out"/>
<feColorMatrix type="matrix" values="0 0 0 0 0 0 0 0 0 0 0 0 0 0 0 0 0 0 0.25 0"/>
<feBlend mode="normal" in2="BackgroundImageFix" result="effect1_dropShadow_1_765"/>
<feBlend mode="normal" in="SourceGraphic" in2="effect1_dropShadow_1_765" result="shape"/>
</filter>
<filter id="filter3_d_1_765" x="264.265" y="14.3711" width="44.81" height="18.8332" filterUnits="userSpaceOnUse" color-interpolation-filters="sRGB">
<feFlood flood-opacity="0" result="BackgroundImageFix"/>
<feColorMatrix in="SourceAlpha" type="matrix" values="0 0 0 0 0 0 0 0 0 0 0 0 0 0 0 0 0 0 127 0" result="hardAlpha"/>
<feOffset dy="4"/>
<feGaussianBlur stdDeviation="2"/>
<feComposite in2="hardAlpha" operator="out"/>
<feColorMatrix type="matrix" values="0 0 0 0 0 0 0 0 0 0 0 0 0 0 0 0 0 0 0.25 0"/>
<feBlend mode="normal" in2="BackgroundImageFix" result="effect1_dropShadow_1_765"/>
<feBlend mode="normal" in="SourceGraphic" in2="effect1_dropShadow_1_765" result="shape"/>
</filter>
<filter id="filter4_d_1_765" x="130.849" y="43.375" width="95.0247" height="186.955" filterUnits="userSpaceOnUse" color-interpolation-filters="sRGB">
<feFlood flood-opacity="0" result="BackgroundImageFix"/>
<feColorMatrix in="SourceAlpha" type="matrix" values="0 0 0 0 0 0 0 0 0 0 0 0 0 0 0 0 0 0 127 0" result="hardAlpha"/>
<feOffset dy="4"/>
<feGaussianBlur stdDeviation="2"/>
<feComposite in2="hardAlpha" operator="out"/>
<feColorMatrix type="matrix" values="0 0 0 0 0 0 0 0 0 0 0 0 0 0 0 0 0 0 0.25 0"/>
<feBlend mode="normal" in2="BackgroundImageFix" result="effect1_dropShadow_1_765"/>
<feBlend mode="normal" in="SourceGraphic" in2="effect1_dropShadow_1_765" result="shape"/>
</filter>
<filter id="filter5_d_1_765" x="211.284" y="31.8672" width="104.777" height="205.069" filterUnits="userSpaceOnUse" color-interpolation-filters="sRGB">
<feFlood flood-opacity="0" result="BackgroundImageFix"/>
<feColorMatrix in="SourceAlpha" type="matrix" values="0 0 0 0 0 0 0 0 0 0 0 0 0 0 0 0 0 0 127 0" result="hardAlpha"/>
<feOffset dy="4"/>
<feGaussianBlur stdDeviation="2"/>
<feComposite in2="hardAlpha" operator="out"/>
<feColorMatrix type="matrix" values="0 0 0 0 0 0 0 0 0 0 0 0 0 0 0 0 0 0 0.25 0"/>
<feBlend mode="normal" in2="BackgroundImageFix" result="effect1_dropShadow_1_765"/>
<feBlend mode="normal" in="SourceGraphic" in2="effect1_dropShadow_1_765" result="shape"/>
</filter>
<linearGradient id="paint0_linear_1_765" x1="148.594" y1="81.5691" x2="148.594" y2="210.139" gradientUnits="userSpaceOnUse">
<stop stop-color="#599666"/>
<stop offset="0.1561" stop-color="#5D9869"/>
<stop offset="0.3252" stop-color="#6A9D72"/>
<stop offset="0.5005" stop-color="#80A781"/>
<stop offset="0.68" stop-color="#9EB495"/>
<stop offset="0.861" stop-color="#C5C4AF"/>
<stop offset="1" stop-color="#E8D3C7"/>
</linearGradient>
</defs>
</svg>
