<svg width="500" height="340" viewBox="0 0 450 278" fill="none" xmlns="http://www.w3.org/2000/svg">
<path d="M-71.6597 87.8731C-59.0294 145.92 -11.2285 191.811 82.5568 209.523C113.649 215.355 137.481 234.542 163.971 251.986C221.454 289.856 312.727 289.991 367.352 217.678C388.129 190.203 391.974 152.837 392.327 119.379C392.768 79.2876 381.058 64.0361 386.203 25.1512C389.506 0.0924268 411.024 -30.2749 411.024 -30.2749L200.398 -67.4729C164.422 -98.3409 111.537 -111.329 57.5109 -97.6858C52.8992 -96.5251 48.4096 -95.1537 44.0043 -93.6595L-32.2332 -99.4677C-30.0533 -81.2594 -36.2499 -58.052 -46.5198 -39.0706C-53.2864 -26.5405 -82.8656 36.3975 -71.6597 87.8731Z" fill="#DEF5FA"/>
</svg>
