<svg width="50" height="51" viewBox="0 0 50 51" fill="none" xmlns="http://www.w3.org/2000/svg">
<path d="M14.2453 42.0834C8.96841 42.0834 4.69067 37.8057 4.69067 32.5288C4.69067 27.252 8.96841 22.9742 14.2453 22.9742C15.3895 22.9742 16.4867 23.1753 17.5035 23.5442C19.5097 18.6371 24.3311 15.1797 29.9601 15.1797C37.3893 15.1797 43.4119 21.2023 43.4119 28.6316C43.4119 28.9588 43.4003 29.2834 43.3773 29.6048C45.6239 30.6393 47.1835 32.9105 47.1835 35.5461C47.1835 39.1565 44.2566 42.0834 40.6461 42.0834H14.2453Z" fill="#F1F1F1"/>
<path fill-rule="evenodd" clip-rule="evenodd" d="M3.65484 29.6582C4.7764 25.034 8.9434 21.6003 13.9124 21.6003C14.8476 21.6003 15.7555 21.7221 16.6205 21.9512C18.8072 17.4495 23.2631 14.2518 28.5034 13.8488C26.3478 10.5078 22.5927 8.2959 18.321 8.2959C11.6332 8.2959 6.21175 13.7174 6.21175 20.4051C6.21175 20.6997 6.22228 20.9919 6.24296 21.2812C4.22058 22.2124 2.81665 24.257 2.81665 26.6295C2.81665 27.7372 3.1227 28.7734 3.65484 29.6582Z" fill="#D5D4D4"/>
</svg>
