<svg width="50" height="51" viewBox="0 0 50 51" fill="none" xmlns="http://www.w3.org/2000/svg">
<path d="M24.7131 11.6304C25.0259 11.8115 25.4297 11.7268 25.6268 11.4239L26.3809 10.265C26.6229 9.89319 26.5197 9.3943 26.1357 9.17209C25.7517 8.94989 25.2655 9.10789 25.0638 9.50302L24.4351 10.7344C24.2708 11.0563 24.4003 11.4494 24.7131 11.6304Z" fill="#FFD400"/>
<path d="M18.4626 9.95749C18.8241 9.95749 19.132 9.68168 19.1506 9.32068L19.2219 7.93759C19.2447 7.49587 18.9049 7.11719 18.4626 7.11719C18.0203 7.11719 17.6806 7.49587 17.7034 7.93759L17.7747 9.32068C17.7933 9.68168 18.1012 9.95749 18.4626 9.95749Z" fill="#FFD400"/>
<path d="M12.2122 11.6304C12.525 11.4494 12.6545 11.0563 12.4902 10.7344L11.8615 9.50302C11.6597 9.10789 11.1736 8.94989 10.7896 9.17209C10.4056 9.3943 10.3024 9.89319 10.5444 10.265L11.2985 11.4239C11.4956 11.7268 11.8994 11.8115 12.2122 11.6304Z" fill="#FFD400"/>
<path d="M7.63825 16.2044C7.81927 15.8916 7.73464 15.4878 7.43171 15.2907L6.27285 14.5366C5.901 14.2946 5.40211 14.3978 5.1799 14.7818C4.9577 15.1657 5.11571 15.6519 5.51083 15.8537L6.74225 16.4824C7.06414 16.6467 7.45723 16.5172 7.63825 16.2044Z" fill="#FFD400"/>
<path d="M5.32849 21.7669C5.68949 21.7855 5.9653 22.0934 5.9653 22.4548C5.9653 22.8163 5.68949 23.1241 5.32849 23.1428L3.9454 23.2141C3.50368 23.2369 3.125 22.8971 3.125 22.4548C3.125 22.0125 3.50368 21.6728 3.9454 21.6956L5.32849 21.7669Z" fill="#FFD400"/>
<path d="M25.5846 14.7269C23.712 13.0003 21.2105 11.9457 18.4627 11.9457C12.6586 11.9457 7.95353 16.6508 7.95353 22.4548C7.95353 22.879 7.97865 23.2973 8.0275 23.7083C9.72596 22.5976 11.756 21.952 13.9368 21.952C14.8212 21.952 15.682 22.0584 16.5066 22.2595C18.3321 18.6347 21.6136 15.867 25.5846 14.7269Z" fill="#FFD400"/>
<path d="M13.9367 42.3188C8.65982 42.3188 4.38208 38.041 4.38208 32.7642C4.38208 27.4873 8.65982 23.2096 13.9367 23.2096C15.0809 23.2096 16.1781 23.4107 17.1949 23.7795C19.2011 18.8725 24.0225 15.415 29.6515 15.415C37.0807 15.415 43.1033 21.4376 43.1033 28.8669C43.1033 29.1942 43.0917 29.5187 43.0687 29.8402C45.3153 30.8746 46.8749 33.1459 46.8749 35.7814C46.8749 39.3919 43.948 42.3188 40.3375 42.3188H13.9367Z" fill="#F1F1F1"/>
</svg>
