<svg width="45" height="44" viewBox="0 0 45 44" fill="none" xmlns="http://www.w3.org/2000/svg">
<path d="M21.2522 9.53742L21.2459 9.54278L21.2397 9.54835C19.8954 10.7705 18.8093 12.3174 18.1152 14.1281C15.743 20.3164 18.8365 27.2561 25.0248 29.6284C26.8118 30.3134 29.6583 31.0506 32.4102 31.0303C34.1033 31.0179 35.8181 30.7159 37.2202 29.8918C33.0729 36.8877 24.3695 40.0867 16.5196 37.0775C7.75283 33.7169 3.37032 23.8856 6.73099 15.1189C8.41682 10.7211 11.3526 7.70741 14.9377 6.20246C18.2703 4.8035 22.2032 4.69211 26.2795 6.03778C22.4654 8.52922 21.7727 9.09482 21.2522 9.53742Z" stroke="white"/>
<path d="M36.9567 16.2526L37.6042 17.7052C37.8222 18.1943 38.2843 18.53 38.8168 18.5862L40.3984 18.7532C40.8287 18.7986 41.0021 19.3321 40.6806 19.6218L39.4992 20.6865C39.1015 21.0449 38.9249 21.5882 39.036 22.112L39.366 23.6678C39.4558 24.0911 39.0019 24.4208 38.6271 24.2046L37.2494 23.41C36.7856 23.1425 36.2144 23.1425 35.7506 23.41L34.3729 24.2046C33.9981 24.4208 33.5442 24.0911 33.634 23.6678L33.964 22.112C34.0751 21.5882 33.8985 21.0449 33.5008 20.6865L32.3194 19.6218C31.9979 19.3321 32.1713 18.7986 32.6016 18.7532L34.1832 18.5862C34.7157 18.53 35.1778 18.1943 35.3958 17.7052L36.0433 16.2526C36.2195 15.8574 36.7805 15.8574 36.9567 16.2526Z" stroke="white"/>
</svg>
