<svg width="50" height="51" viewBox="0 0 50 51" fill="none" xmlns="http://www.w3.org/2000/svg">
<path d="M34.8795 23.5693H32.138C31.6286 23.5693 31.1776 23.8984 31.0221 24.3835L28.4674 32.3527C28.225 33.109 28.7892 33.8823 29.5834 33.8823H30.9825C31.4298 33.8823 31.7858 34.2571 31.7628 34.7037L31.3296 43.1166C31.3188 43.3265 31.6018 43.403 31.6982 43.2162L37.7087 31.5714C38.1113 30.7914 37.5451 29.862 36.6674 29.862H35.4974C34.9646 29.862 34.5881 29.3404 34.7559 28.8347L35.9917 25.1103C36.2434 24.3517 35.6787 23.5693 34.8795 23.5693Z" fill="#FFD400"/>
<path d="M38.3517 33.1479L39.1565 31.5887C39.8679 30.2103 38.8673 28.5678 37.3162 28.5678H36.2083L37.3927 24.9984C37.8375 23.6579 36.8394 22.2752 35.427 22.2752H31.8496C30.9494 22.2752 30.1523 22.8567 29.8775 23.714L27.0694 32.4737C26.997 32.6998 26.9653 32.9268 26.9695 33.1479L12.9623 33.1479C7.5293 33.1479 3.125 28.7436 3.125 23.3107C3.125 17.8777 7.5293 13.4734 12.9623 13.4734C14.1403 13.4734 15.27 13.6805 16.3169 14.0602C18.3824 9.00794 23.3465 5.44824 29.142 5.44824C36.7911 5.44824 42.9919 11.649 42.9919 19.2981C42.9919 19.6351 42.9798 19.9692 42.9562 20.3001C45.2693 21.3652 46.875 23.7037 46.875 26.4172C46.875 30.1345 43.8615 33.1479 40.1442 33.1479H38.3517Z" fill="#D5D4D4"/>
<path d="M26.7317 43.7147L25.3883 40.9138L24.0447 43.7151C23.9114 43.9485 23.835 44.2198 23.835 44.5093C23.835 45.383 24.5304 46.0913 25.3883 46.0913C26.2461 46.0913 26.9415 45.383 26.9415 44.5093C26.9415 44.2197 26.8651 43.9482 26.7317 43.7147Z" fill="#64D2FF"/>
<path d="M22.0721 38.5376L20.7285 35.7363L19.3851 38.5373C19.2517 38.7707 19.1752 39.0422 19.1752 39.3318C19.1752 40.2055 19.8707 40.9138 20.7285 40.9138C21.5863 40.9138 22.2817 40.2055 22.2817 39.3318C22.2817 39.0423 22.2054 38.771 22.0721 38.5376Z" fill="#64D2FF"/>
<path d="M17.4123 43.715L16.0688 40.9138L14.7253 43.7148C14.5919 43.9483 14.5155 44.2197 14.5155 44.5093C14.5155 45.383 15.2109 46.0913 16.0688 46.0913C16.9266 46.0913 17.622 45.383 17.622 44.5093C17.622 44.2198 17.5456 43.9484 17.4123 43.715Z" fill="#64D2FF"/>
<path d="M12.7525 38.5374L11.409 35.7363L10.0654 38.5375C9.93207 38.7709 9.85571 39.0423 9.85571 39.3318C9.85571 40.2055 10.5511 40.9138 11.409 40.9138C12.2668 40.9138 12.9622 40.2055 12.9622 39.3318C12.9622 39.0422 12.8858 38.7708 12.7525 38.5374Z" fill="#64D2FF"/>
</svg>
