<svg width="50" height="51" viewBox="0 0 50 51" fill="none" xmlns="http://www.w3.org/2000/svg">
<path d="M12.9623 34.6616C7.5293 34.6616 3.125 30.2573 3.125 24.8243C3.125 19.3914 7.5293 14.9871 12.9623 14.9871C14.1403 14.9871 15.27 15.1941 16.3169 15.5739C18.3824 10.5216 23.3465 6.96191 29.142 6.96191C36.7911 6.96191 42.9919 13.1627 42.9919 20.8118C42.9919 21.1487 42.9798 21.4829 42.9562 21.8138C45.2693 22.8789 46.875 25.2173 46.875 27.9308C46.875 31.6482 43.8615 34.6616 40.1442 34.6616H12.9623Z" fill="#D5D4D4"/>
<path d="M36.3103 40.0511L34.9667 37.25L33.6231 40.0512C33.4898 40.2846 33.4135 40.556 33.4135 40.8455C33.4135 41.7192 34.1089 42.4275 34.9667 42.4275C35.8246 42.4275 36.52 41.7192 36.52 40.8455C36.52 40.556 36.4436 40.2846 36.3103 40.0511Z" fill="#64D2FF"/>
<path d="M31.6506 45.7465L30.307 42.9453L28.9635 45.7463C28.8301 45.9798 28.7537 46.2512 28.7537 46.5408C28.7537 47.4145 29.4491 48.1228 30.307 48.1228C31.1648 48.1228 31.8602 47.4145 31.8602 46.5408C31.8602 46.2513 31.7839 45.98 31.6506 45.7465Z" fill="#64D2FF"/>
<path d="M26.9908 40.0512L25.6472 37.25L24.3037 40.0511C24.1703 40.2846 24.0939 40.556 24.0939 40.8455C24.0939 41.7192 24.7894 42.4275 25.6472 42.4275C26.505 42.4275 27.2005 41.7192 27.2005 40.8455C27.2005 40.556 27.1241 40.2846 26.9908 40.0512Z" fill="#64D2FF"/>
<path d="M22.5898 45.7463L21.2463 42.9453L19.9027 45.7465C19.7694 45.9799 19.6931 46.2513 19.6931 46.5408C19.6931 47.4145 20.3885 48.1228 21.2463 48.1228C22.1042 48.1228 22.7996 47.4145 22.7996 46.5408C22.7996 46.2512 22.7232 45.9798 22.5898 45.7463Z" fill="#64D2FF"/>
<path d="M17.9302 40.0513L16.5866 37.25L15.243 40.0511C15.1097 40.2845 15.0333 40.5559 15.0333 40.8455C15.0333 41.7192 15.7287 42.4275 16.5866 42.4275C17.4444 42.4275 18.1398 41.7192 18.1398 40.8455C18.1398 40.556 18.0635 40.2847 17.9302 40.0513Z" fill="#64D2FF"/>
<path d="M13.2703 45.7464L11.9268 42.9453L10.5832 45.7464C10.4499 45.9799 10.3735 46.2512 10.3735 46.5408C10.3735 47.4145 11.069 48.1228 11.9268 48.1228C12.7846 48.1228 13.48 47.4145 13.48 46.5408C13.48 46.2512 13.4037 45.9799 13.2703 45.7464Z" fill="#64D2FF"/>
<path d="M20.8436 6.70304C21.0528 6.82407 21.3227 6.76748 21.4545 6.56495L21.9587 5.79015C22.1205 5.54154 22.0515 5.20799 21.7948 5.05942C21.538 4.91086 21.213 5.0165 21.0781 5.28068L20.6578 6.10398C20.5479 6.31919 20.6345 6.58201 20.8436 6.70304Z" fill="#FFD400"/>
<path d="M16.6647 5.58453C16.9063 5.58453 17.1122 5.40012 17.1246 5.15877L17.1723 4.23405C17.1875 3.93873 16.9604 3.68555 16.6647 3.68555C16.3689 3.68555 16.1418 3.93873 16.157 4.23405L16.2047 5.15877C16.2172 5.40012 16.423 5.58453 16.6647 5.58453Z" fill="#FFD400"/>
<path d="M12.4857 6.70304C12.6949 6.58201 12.7814 6.31919 12.6716 6.10398L12.2512 5.28068C12.1164 5.0165 11.7913 4.91086 11.5346 5.05942C11.2778 5.20799 11.2089 5.54154 11.3706 5.79015L11.8748 6.56495C12.0066 6.76748 12.2766 6.82407 12.4857 6.70304Z" fill="#FFD400"/>
<path d="M9.42765 9.76111C9.54868 9.55196 9.49209 9.282 9.28956 9.15021L8.51476 8.64602C8.26615 8.48425 7.9326 8.55324 7.78403 8.80996C7.63547 9.06669 7.74111 9.39175 8.00528 9.52662L8.82859 9.94695C9.0438 10.0568 9.30662 9.97025 9.42765 9.76111Z" fill="#FFD400"/>
<path d="M7.88338 13.4801C8.12473 13.4926 8.30914 13.6984 8.30914 13.9401C8.30914 14.1817 8.12473 14.3876 7.88338 14.4L6.95866 14.4477C6.66334 14.4629 6.41016 14.2358 6.41016 13.9401C6.41016 13.6443 6.66334 13.4172 6.95866 13.4324L7.88338 13.4801Z" fill="#FFD400"/>
<path d="M20.7325 8.20607C19.9003 7.37387 18.5018 6.91382 16.6647 6.91382C12.7842 6.91382 9.63843 10.0596 9.63843 13.9401C9.63843 14.2236 9.65499 14.2645 9.68764 14.5393C10.6875 13.9679 11.8864 13.5679 13.3444 13.5679C13.9357 13.5679 14.9368 13.6779 15.6442 14.0108C16.3099 11.9719 17.8822 9.95369 20.7325 8.20607Z" fill="#FFD400"/>
</svg>
