<svg width="50" height="51" viewBox="0 0 50 51" fill="none" xmlns="http://www.w3.org/2000/svg">
<path d="M12.9623 32.0435C7.5293 32.0435 3.125 27.6392 3.125 22.2062C3.125 16.7732 7.5293 12.3689 12.9623 12.3689C14.1403 12.3689 15.27 12.576 16.3169 12.9557C18.3824 7.90345 23.3465 4.34375 29.142 4.34375C36.7911 4.34375 42.9919 10.5445 42.9919 18.1936C42.9919 18.5306 42.9798 18.8647 42.9562 19.1956C45.2693 20.2607 46.875 22.5992 46.875 25.3127C46.875 29.03 43.8615 32.0435 40.1442 32.0435H12.9623Z" fill="#D5D4D4"/>
<path d="M25.2953 32.0431C21.6357 32.0431 18.6689 29.0764 18.6689 25.4168C18.6689 21.7572 21.6357 18.7905 25.2953 18.7905C26.0888 18.7905 26.8497 18.9299 27.5549 19.1857C28.9462 15.7826 32.29 13.3848 36.1938 13.3848C41.3462 13.3848 45.523 17.5616 45.523 22.7139C45.523 22.9409 45.5149 23.166 45.499 23.3889C47.0571 24.1063 48.1387 25.6815 48.1387 27.5093C48.1387 30.0133 46.1088 32.0431 43.6049 32.0431H25.2953Z" fill="#ACACAC"/>
<path d="M36.3103 37.433L34.9667 34.6318L33.6231 37.4331C33.4898 37.6665 33.4135 37.9378 33.4135 38.2273C33.4135 39.1011 34.1089 39.8094 34.9667 39.8094C35.8246 39.8094 36.52 39.1011 36.52 38.2273C36.52 37.9378 36.4436 37.6664 36.3103 37.433Z" fill="#64D2FF"/>
<path d="M31.6506 43.1284L30.307 40.3271L28.9635 43.1281C28.8301 43.3616 28.7537 43.633 28.7537 43.9226C28.7537 44.7963 29.4491 45.5046 30.307 45.5046C31.1648 45.5046 31.8602 44.7963 31.8602 43.9226C31.8602 43.6331 31.7839 43.3618 31.6506 43.1284Z" fill="#64D2FF"/>
<path d="M26.9908 37.433L25.6472 34.6318L24.3037 37.433C24.1703 37.6664 24.0939 37.9378 24.0939 38.2273C24.0939 39.1011 24.7894 39.8094 25.6472 39.8094C26.505 39.8094 27.2005 39.1011 27.2005 38.2273C27.2005 37.9378 27.1241 37.6665 26.9908 37.433Z" fill="#64D2FF"/>
<path d="M22.5898 43.1282L21.2463 40.3271L19.9027 43.1283C19.7694 43.3617 19.6931 43.6331 19.6931 43.9226C19.6931 44.7963 20.3885 45.5046 21.2463 45.5046C22.1042 45.5046 22.7996 44.7963 22.7996 43.9226C22.7996 43.633 22.7232 43.3616 22.5898 43.1282Z" fill="#64D2FF"/>
<path d="M17.9302 37.4331L16.5866 34.6318L15.243 37.4329C15.1097 37.6664 15.0333 37.9378 15.0333 38.2273C15.0333 39.1011 15.7287 39.8094 16.5866 39.8094C17.4444 39.8094 18.1398 39.1011 18.1398 38.2273C18.1398 37.9378 18.0635 37.6665 17.9302 37.4331Z" fill="#64D2FF"/>
<path d="M13.2703 43.1282L11.9268 40.3271L10.5832 43.1282C10.4499 43.3617 10.3735 43.6331 10.3735 43.9226C10.3735 44.7963 11.069 45.5046 11.9268 45.5046C12.7846 45.5046 13.48 44.7963 13.48 43.9226C13.48 43.6331 13.4037 43.3617 13.2703 43.1282Z" fill="#64D2FF"/>
</svg>
