<svg width="50" height="51" viewBox="0 0 50 51" fill="none" xmlns="http://www.w3.org/2000/svg">
<path d="M18.3093 26.6474C18.3093 26.312 18.5812 26.04 18.9167 26.04C19.2521 26.04 19.524 26.312 19.524 26.6474V28.8408L20.5841 27.8985C20.8331 27.6772 21.2168 27.6973 21.4413 27.9434C21.6657 28.1895 21.6459 28.5684 21.3969 28.7897L19.524 30.4545V33.1743L22.0371 31.742L22.5268 29.4672C22.5966 29.1431 22.9192 28.9362 23.2473 29.005C23.5754 29.0739 23.7848 29.3924 23.715 29.7166L23.4526 30.9351L25.2304 29.9218C25.5191 29.7573 25.889 29.8564 26.0567 30.1432C26.2245 30.43 26.1264 30.7958 25.8378 30.9604L23.9157 32.0559L25.2511 32.4843C25.5703 32.5867 25.7451 32.925 25.6414 33.24C25.5378 33.5549 25.195 33.7272 24.8757 33.6248L22.5001 32.8628L20.1767 34.187L22.6834 35.6158L24.9036 34.9036C25.2229 34.8012 25.5657 34.9735 25.6693 35.2884C25.773 35.6034 25.5982 35.9417 25.279 36.0441L24.099 36.4226L25.8645 37.429C26.1532 37.5935 26.2512 37.9593 26.0835 38.2461C25.9158 38.5329 25.5458 38.632 25.2572 38.4675L23.3229 37.365L23.6192 38.7413C23.689 39.0654 23.4796 39.384 23.1515 39.4528C22.8234 39.5217 22.5008 39.3147 22.4311 38.9906L21.9073 36.5582L19.524 35.1997V38.1132L21.2754 39.67C21.5244 39.8913 21.5442 40.2702 21.3198 40.5163C21.0953 40.7624 20.7116 40.7825 20.4626 40.5612L19.524 39.7269V41.7419C19.524 42.0773 19.2521 42.3492 18.9167 42.3492C18.5812 42.3492 18.3093 42.0773 18.3093 41.7419V39.5624L17.2649 40.4908C17.016 40.7121 16.6322 40.692 16.4078 40.4459C16.1833 40.1998 16.2032 39.8209 16.4521 39.5996L18.3093 37.9487V35.2514L15.7572 36.7061L15.2719 38.9603C15.2021 39.2844 14.8795 39.4913 14.5514 39.4225C14.2233 39.3536 14.0139 39.0351 14.0837 38.7109L14.3417 37.5129L12.5762 38.5192C12.2876 38.6837 11.9176 38.5846 11.7499 38.2978C11.5822 38.011 11.6802 37.6452 11.9688 37.4806L13.9032 36.3781L12.5476 35.9433C12.2284 35.8409 12.0536 35.5026 12.1573 35.1876C12.2609 34.8727 12.6037 34.7004 12.923 34.8028L15.3187 35.5713L17.7473 34.187L15.1889 32.7288L12.9487 33.4474C12.6294 33.5498 12.2866 33.3775 12.1829 33.0625C12.0793 32.7476 12.2541 32.4093 12.5733 32.3069L13.7733 31.9219L11.9956 30.9087C11.7069 30.7442 11.6089 30.3783 11.7766 30.0915C11.9444 29.8047 12.3143 29.7056 12.6029 29.8701L14.525 30.9657L14.2331 29.6098C14.1633 29.2856 14.3727 28.9671 14.7008 28.8982C15.0289 28.8294 15.3514 29.0363 15.4212 29.3604L15.9406 31.7725L18.3093 33.1226V30.2621L16.5736 28.7192C16.3247 28.4979 16.3048 28.119 16.5293 27.8729C16.7537 27.6268 17.1375 27.6067 17.3864 27.828L18.3093 28.6484V26.6474Z" fill="#64D2FF"/>
<path d="M26.9904 36.9126C26.8849 36.8049 26.7626 36.7098 26.6247 36.6315L26.5678 36.5992C26.9366 36.1774 27.0851 35.5783 26.8934 34.9981C26.7935 34.6957 26.6159 34.4433 26.3908 34.2537C26.6022 34.0672 26.7689 33.8237 26.8645 33.5342C27.0708 32.91 26.8832 32.2638 26.4511 31.8402L26.597 31.7574C27.3977 31.3027 27.6706 30.2843 27.2044 29.4901C26.7441 28.7061 25.7359 28.436 24.9453 28.8849L24.8553 28.936C24.6758 28.387 24.2117 27.9514 23.6136 27.8264C23.3019 27.7613 22.9892 27.7879 22.7064 27.8893C22.6561 27.5849 22.5196 27.2909 22.295 27.0455C21.8489 26.5582 21.1765 26.3961 20.5811 26.5749V26.41C20.5811 25.4907 19.8358 24.7454 18.9166 24.7454C17.9973 24.7454 17.252 25.4907 17.252 26.41V26.4663C16.6941 26.3509 16.0911 26.5239 15.6802 26.9728C15.4622 27.2109 15.3272 27.4947 15.2734 27.7894C14.9834 27.6796 14.6603 27.649 14.3383 27.7163C13.702 27.8493 13.2173 28.3339 13.0657 28.9326L12.8878 28.8316C12.0972 28.3826 11.089 28.6527 10.6287 29.4368C10.1625 30.2309 10.4354 31.2493 11.2362 31.704L11.2957 31.7378C10.919 32.1603 10.7657 32.7654 10.9593 33.3512C11.0621 33.6625 11.2473 33.9207 11.4817 34.112C11.2347 34.3053 11.0394 34.5711 10.9327 34.8941C10.7246 35.5241 10.9175 36.1764 11.3581 36.5999L11.2084 36.6849C11.1775 36.7024 11.1474 36.7208 11.118 36.74C6.56659 35.8767 3.125 31.8779 3.125 27.0753C3.125 21.6423 7.5293 17.238 12.9623 17.238C14.1403 17.238 15.27 17.4451 16.3169 17.8248C18.3824 12.7726 23.3465 9.21289 29.142 9.21289C36.7911 9.21289 42.9919 15.4137 42.9919 23.0627C42.9919 23.3997 42.9798 23.7339 42.9562 24.0648C45.2693 25.1298 46.875 27.4683 46.875 30.1818C46.875 33.8991 43.8615 36.9126 40.1442 36.9126H26.9904Z" fill="#F3F3F3"/>
</svg>
