<svg width="50" height="51" viewBox="0 0 50 51" fill="none" xmlns="http://www.w3.org/2000/svg">
<path fill-rule="evenodd" clip-rule="evenodd" d="M43.7323 26.6003C43.2175 26.5737 42.8241 26.1347 42.8241 25.6191C42.8241 25.1036 43.2175 24.6645 43.7323 24.638L45.7049 24.5363C46.3349 24.5038 46.875 24.9883 46.875 25.6191C46.875 26.25 46.3349 26.7345 45.7049 26.702L43.7323 26.6003ZM40.4381 16.7046C40.6962 17.1507 41.2569 17.3354 41.716 17.101L43.4723 16.2044C44.0358 15.9166 44.2612 15.2232 43.9442 14.6756C43.6273 14.1279 42.9158 13.9808 42.3854 14.3259L40.7326 15.4014C40.3006 15.6825 40.1799 16.2584 40.4381 16.7046ZM33.9146 10.1811C34.3607 10.4393 34.9366 10.3185 35.2177 9.8865L36.2933 8.2337C36.6384 7.70336 36.4912 6.99182 35.9436 6.67491C35.3959 6.35799 34.7025 6.58334 34.4148 7.14688L33.5181 8.90316C33.2837 9.36225 33.4684 9.9229 33.9146 10.1811ZM25 7.79507C25.5155 7.79507 25.9546 7.40169 25.9811 6.88683L26.0829 4.91422C26.1154 4.28423 25.6308 3.74414 25 3.74414C24.3692 3.74414 23.8846 4.28423 23.9171 4.91422L24.0189 6.88682C24.0454 7.40169 24.4845 7.79507 25 7.79507ZM16.0854 10.1811C16.5316 9.9229 16.7163 9.36225 16.4819 8.90316L15.5852 7.14688C15.2975 6.58335 14.6041 6.35799 14.0564 6.67491C13.5088 6.99182 13.3616 7.70336 13.7067 8.2337L14.7822 9.8865C15.0634 10.3185 15.6393 10.4393 16.0854 10.1811ZM9.56194 16.7046C9.82011 16.2584 9.6994 15.6825 9.26736 15.4014L7.61456 14.3259C7.08422 13.9808 6.37268 14.1279 6.05576 14.6756C5.73885 15.2232 5.9642 15.9166 6.52774 16.2044L8.28402 17.101C8.74311 17.3354 9.30376 17.1507 9.56194 16.7046ZM6.26769 24.638C6.78255 24.6645 7.17593 25.1036 7.17593 25.6191C7.17593 26.1347 6.78255 26.5737 6.26768 26.6003L4.29508 26.702C3.66509 26.7345 3.125 26.25 3.125 25.6191C3.125 24.9883 3.66509 24.5038 4.29508 24.5363L6.26769 24.638ZM9.56194 34.5337C9.30376 34.0876 8.74311 33.9029 8.28402 34.1373L6.52774 35.0339C5.96421 35.3216 5.73885 36.015 6.05577 36.5627C6.37268 37.1103 7.08422 37.2575 7.61456 36.9124L9.26736 35.8369C9.69941 35.5557 9.82012 34.9799 9.56194 34.5337ZM16.0854 41.0572C15.6393 40.799 15.0634 40.9197 14.7823 41.3518L13.7067 43.0046C13.3616 43.5349 13.5088 44.2465 14.0564 44.5634C14.6041 44.8803 15.2975 44.6549 15.5852 44.0914L16.4819 42.3351C16.7163 41.876 16.5316 41.3154 16.0854 41.0572ZM25 43.4432C24.4845 43.4432 24.0454 43.8366 24.0189 44.3515L23.9171 46.3241C23.8846 46.9541 24.3692 47.4941 25 47.4941C25.6308 47.4941 26.1154 46.9541 26.0829 46.3241L25.9811 44.3515C25.9546 43.8366 25.5156 43.4432 25 43.4432ZM33.9146 41.0572C33.4684 41.3154 33.2837 41.876 33.5181 42.3351L34.4148 44.0914C34.7025 44.6549 35.3959 44.8803 35.9436 44.5634C36.4912 44.2465 36.6384 43.5349 36.2933 43.0046L35.2178 41.3518C34.9366 40.9197 34.3607 40.799 33.9146 41.0572ZM40.4381 34.5337C40.1799 34.9799 40.3006 35.5557 40.7326 35.8369L42.3854 36.9124C42.9158 37.2575 43.6273 37.1103 43.9442 36.5627C44.2612 36.015 44.0358 35.3216 43.4723 35.0339L41.716 34.1373C41.2569 33.9029 40.6962 34.0876 40.4381 34.5337Z" fill="#FFD400"/>
<path d="M39.9883 25.6193C39.9883 33.8972 33.2778 40.6077 24.9999 40.6077C16.722 40.6077 10.0115 33.8972 10.0115 25.6193C10.0115 17.3414 16.722 10.6309 24.9999 10.6309C33.2778 10.6309 39.9883 17.3414 39.9883 25.6193Z" fill="#FFD400"/>
</svg>
